<svg
                  width="18"
                  height="18"
                  viewBox="0 0 24 24"
                  fill="none"
                  xmlns="http://www.w3.org/2000/svg"
                >
                  <path
                    d="M18.3 4.40002C17.5 4.40002 16.9 5.00002 16.9 5.80002C16.9 6.60002 17.5 7.20002 18.3 7.20002C19.1 7.20002 19.7 6.60002 19.7 5.80002C19.7 5.00002 19.1 4.40002 18.3 4.40002Z"
                    fill="currentColor"
                  />
                  <path
                    d="M12 6.19995C8.69998 6.19995 6.09998 8.89995 6.09998 12.1C6.09998 15.3 8.79998 18 12 18C15.2 18 17.9 15.3 17.9 12.1C17.9 8.89995 15.3 6.19995 12 6.19995ZM12 15.9C9.89998 15.9 8.19998 14.2 8.19998 12.1C8.19998 9.99995 9.89998 8.29995 12 8.29995C14.1 8.29995 15.8 9.99995 15.8 12.1C15.8 14.2 14.1 15.9 12 15.9Z"
                    fill="currentColor"
                  />
                  <path
                    d="M16.8 0H7.3C3.2 0 0 3.2 0 7.2V16.7C0 20.7 3.2 23.9 7.2 23.9H16.7C20.7 23.9 23.9 20.7 23.9 16.7V7.2C24 3.2 20.8 0 16.8 0ZM21.7 16.8C21.7 19.5 19.5 21.8 16.7 21.8H7.2C4.5 21.8 2.2 19.6 2.2 16.8V7.3C2.2 4.6 4.4 2.3 7.2 2.3H16.7C19.4 2.3 21.7 4.5 21.7 7.3V16.8Z"
                    fill="currentColor"
                  />
                </svg>