<svg width="500" height="45" viewBox="0 0 500 45" fill="none" xmlns="http://www.w3.org/2000/svg">
<path d="M251.72 1.13989C253.932 2.23863 255.459 3.43857 257.02 5.34601C257.02 5.72564 257.02 6.10527 257.02 6.49641C256.068 6.87604 255.116 7.25567 254.136 7.6468C253.272 6.91657 252.408 6.18634 251.544 5.45611C249.116 3.54298 246.125 3.89692 243.175 4.19562C241.113 5.16977 240.103 5.86075 238.921 7.7906C238.067 11.5356 238.349 14.0312 240.099 17.366C241.458 19.5041 243.246 21.1627 245.086 22.8895C247.289 24.9951 249.455 27.0853 251.441 29.3987C253.993 32.3603 256.792 35.069 259.58 37.8087C260.626 38.8372 261.671 39.8669 262.714 40.8981C263.172 41.3478 263.63 41.7974 264.101 42.2607C265.096 43.309 265.096 43.309 265.096 43.8842C262.149 44.2389 262.149 44.2389 260.481 43.8842C259.072 42.7112 258.042 41.3715 257.02 39.8578C255.302 40.4624 253.956 41.1304 252.441 42.1586C248.724 44.5788 245.214 44.8596 240.868 44.4594C236.976 43.5614 234.149 41.6423 231.746 38.4558C229.86 35.2732 230.008 31.9307 230.484 28.3539C231.502 24.6802 233.826 22.5221 236.829 20.3011C236.54 19.0041 236.193 17.8659 235.655 16.6455C234.469 13.4037 234.484 9.514 235.563 6.23802C238.914 0.189198 245.551 -1.34924 251.72 1.13989Z" fill="#9E8886"/>
<path d="M239.137 22.0267C242.451 24.7894 245.574 27.7085 248.655 30.7266C249.137 31.1856 249.619 31.6445 250.115 32.1174C250.567 32.5615 251.02 33.0057 251.485 33.4633C251.898 33.863 252.31 34.2627 252.735 34.6746C253.559 35.8315 253.559 35.8315 253.46 37.0778C252.517 39.156 250.333 40.015 248.367 41.0082C246.888 41.4756 246.888 41.4756 245.482 41.5834C244.536 41.6724 244.536 41.6724 243.571 41.7632C240.177 41.4764 237.767 40.266 235.423 37.8087C233.527 34.86 233.526 31.7537 233.945 28.3539C235.035 25.6885 236.622 23.5123 239.137 22.0267Z" fill="white"/>
<path d="M0 0.4646C1.14221 0.4646 2.28443 0.4646 3.46125 0.4646C6.08161 8.24743 8.63497 16.0488 11.0995 23.8824C11.4903 25.1207 11.8858 26.3574 12.2834 27.5935C13.2591 30.6687 14.1225 33.5898 14.4219 36.8077C14.8026 36.8077 15.1834 36.8077 15.5756 36.8077C15.682 36.3355 15.7883 35.8633 15.8979 35.3768C18.7031 23.5451 22.6102 11.9657 26.5363 0.4646C27.4881 0.4646 28.44 0.4646 29.4206 0.4646C32.1026 8.28228 34.6384 16.1407 37.0642 24.0412C37.3526 24.9807 37.6419 25.92 37.932 26.859C38.3425 28.1892 38.7495 29.5204 39.1554 30.852C39.3417 31.4541 39.3417 31.4541 39.5317 32.0685C40.0297 33.7156 40.3813 35.0757 40.3813 36.8077C40.762 36.8077 41.1428 36.8077 41.535 36.8077C41.6042 36.2143 41.6733 35.6209 41.7446 35.0095C42.088 32.9157 42.6105 31.2076 43.3738 29.2363C44.6344 25.8228 45.682 22.3942 46.6548 18.8886C48.3846 12.6723 50.401 6.56635 52.4957 0.4646C53.6379 0.4646 54.7801 0.4646 55.9569 0.4646C55.6102 2.32188 55.1818 4.09667 54.5981 5.89309C54.433 6.40475 54.2679 6.91641 54.0978 7.44358C53.9142 8.00795 53.7305 8.57232 53.5412 9.15379C53.13 10.4276 52.7192 11.7016 52.3086 12.9756C52.1366 13.5086 52.1366 13.5086 51.9611 14.0524C50.2907 19.2333 48.6452 24.4222 46.996 29.6099C46.4398 31.3592 45.8835 33.1084 45.3271 34.8576C44.4475 37.6228 43.5681 40.3881 42.6888 43.1534C41.7369 43.3437 40.7851 43.5341 39.8044 43.7303C37.9967 39.8566 36.8255 35.8082 35.586 31.724C35.1264 30.2213 34.6648 28.7191 34.2024 27.2172C34.0891 26.849 33.9759 26.4808 33.8592 26.1014C32.7953 22.6565 31.6664 19.2355 30.4892 15.8277C29.6007 13.2299 28.9035 10.6319 28.2669 7.96398C27.3212 9.73734 26.6625 11.5098 26.0473 13.4218C25.8431 14.0551 25.6389 14.6885 25.4286 15.3411C25.1024 16.3654 25.1024 16.3654 24.7696 17.4103C24.5443 18.114 24.319 18.8176 24.0869 19.5426C21.5263 27.5722 19.1205 35.6488 16.7294 43.7303C15.7775 43.7303 14.8257 43.7303 13.845 43.7303C13.2276 42.1094 12.6156 40.4867 12.0062 38.8629C11.8378 38.4223 11.6694 37.9817 11.4958 37.5277C10.1934 34.0407 9.12371 30.5023 8.09155 26.9283C7.16076 23.7247 6.16273 20.5475 5.12653 17.3765C4.97522 16.9135 4.8239 16.4504 4.668 15.9733C4.04679 14.077 3.42309 12.1814 2.79917 10.286C2.33569 8.87622 1.87422 7.46581 1.41289 6.05533C1.27052 5.62517 1.12815 5.19501 0.981461 4.75181C0 1.74868 0 1.74868 0 0.4646Z" fill="#9E8886"/>
<path d="M152.872 0.4646C154.014 0.4646 155.156 0.4646 156.333 0.4646C156.524 6.93714 156.714 13.4097 156.91 20.0784C158.814 18.365 160.718 16.6517 162.679 14.8865C163.692 14.0346 164.711 13.1906 165.744 12.3627C168.486 10.1424 171.187 7.87932 173.876 5.59479C174.758 4.84536 175.641 4.09716 176.524 3.34898C176.822 3.07704 177.12 2.80511 177.428 2.52493C179.661 0.532402 179.661 0.532402 181.333 0.182922C182.966 0.323761 182.966 0.323761 184.6 0.4646C184.6 0.845338 184.6 1.22608 184.6 1.61835C183.443 2.60003 182.278 3.51942 181.067 4.43062C178.099 6.70926 175.205 9.04643 172.378 11.4973C169.893 13.6439 167.404 15.7817 164.878 17.879C164.134 18.4981 164.134 18.4981 163.375 19.1297C162.102 20.0784 162.102 20.0784 160.371 20.6552C162.495 22.8061 164.673 24.8827 166.897 26.9288C167.229 27.2343 167.56 27.5397 167.902 27.8545C169.988 29.7717 172.096 31.6596 174.239 33.5132C176.097 35.1347 177.919 36.7965 179.749 38.4505C180.989 39.5584 182.247 40.6397 183.519 41.7112C184.066 42.1871 184.613 42.663 185.177 43.1534C185.177 43.3437 185.177 43.5341 185.177 43.7303C181.101 44.1145 181.101 44.1145 178.694 42.3985C178.092 41.8075 177.501 41.2051 176.921 40.5935C176.269 39.949 175.615 39.3061 174.96 38.6646C174.64 38.3463 174.319 38.028 173.989 37.7001C172.702 36.4608 171.327 35.3554 169.926 34.2479C166.927 31.8453 164.129 29.2611 161.342 26.6202C161.016 26.3123 160.689 26.0044 160.353 25.6871C160.065 25.412 159.776 25.1369 159.478 24.8535C158.535 23.9905 158.535 23.9905 156.91 22.9627C156.72 29.816 156.529 36.6693 156.333 43.7303C155.191 43.7303 154.049 43.7303 152.872 43.7303C152.872 29.4526 152.872 15.1749 152.872 0.4646Z" fill="#9E8785"/>
<path d="M129.603 2.5152C131.335 3.58676 132.565 4.64539 133.835 6.23334C133.454 6.99482 133.074 7.75629 132.681 8.54084C130.473 8.11175 129.208 7.17817 127.476 5.80294C123.483 3.26987 118.769 3.45977 114.221 3.92584C112.084 4.61898 110.314 5.56297 108.453 6.81021C107.917 7.15526 107.382 7.5003 106.83 7.8558C103.271 11.4153 101.417 15.6444 101.31 20.6925C101.327 27.0586 102.294 31.6317 106.801 36.4089C111.061 40.2764 115.748 40.5336 121.293 40.4335C125.449 40.1167 128.455 38.4293 131.528 35.654C132.289 36.0347 133.051 36.4155 133.835 36.8077C133.835 38.5384 133.835 38.5384 132.573 39.9084C127.815 43.5656 122.228 44.8094 116.326 44.5843C110.253 43.7845 105.497 40.8841 101.695 36.1542C97.4025 30.1306 96.6359 23.868 97.4919 16.6171C99.0857 10.1784 102.837 5.89772 108.275 2.32591C114.58 -1.02426 123.302 -0.573591 129.603 2.5152Z" fill="#9D8785"/>
<path d="M74.417 0.4646C75.5592 0.4646 76.7014 0.4646 77.8782 0.4646C77.8782 14.7423 77.8782 29.0199 77.8782 43.7303C76.736 43.7303 75.5938 43.7303 74.417 43.7303C74.417 29.4526 74.417 15.1749 74.417 0.4646Z" fill="#9E8684"/>
<path d="M416.722 0C438.598 0 438.598 0 443.258 4.615C445.72 7.76891 445.339 11.7583 444.989 15.5756C443.879 19.0262 441.559 20.9473 438.427 22.6784C436.348 23.2229 434.446 23.0991 432.297 23.075C435.923 27.7905 439.638 32.3887 443.594 36.8323C445.407 38.8843 446.985 40.951 448.45 43.2657C446.765 43.4368 445.481 43.5491 443.835 43.2657C442.495 42.1142 441.646 41.2268 440.626 39.8405C440.22 39.3253 440.22 39.3253 439.806 38.7997C439.021 37.7979 438.254 36.7839 437.489 35.7663C436.475 34.4709 435.46 33.1767 434.44 31.8859C433.701 30.9064 433.006 29.8936 432.336 28.8663C431.93 28.2878 431.525 27.7092 431.108 27.1131C430.58 26.31 430.58 26.31 430.042 25.4907C427.521 23.475 427.521 23.475 420.183 23.6519C420.183 30.1244 420.183 36.597 420.183 43.2657C419.041 43.2657 417.899 43.2657 416.722 43.2657C416.722 28.988 416.722 14.7103 416.722 0Z" fill="#9E8886"/>
<path d="M479.025 0C479.976 0 480.928 0 481.909 0C486.266 10.3969 490.602 20.8026 494.851 31.2443C495.237 32.1919 495.623 33.1391 496.01 34.0861C496.551 35.41 497.089 36.7349 497.627 38.0603C497.788 38.4553 497.95 38.8504 498.117 39.2574C499.215 41.9797 499.215 41.9797 499.215 43.2657C498.073 43.2657 496.931 43.2657 495.754 43.2657C495.319 42.3291 494.887 41.3914 494.456 40.4534C494.215 39.9314 493.974 39.4093 493.726 38.8715C492.608 36.3248 491.595 33.7335 490.562 31.1513C483.899 31.1513 477.236 31.1513 470.371 31.1513C468.658 35.149 466.945 39.1468 465.18 43.2657C464.037 43.2657 462.895 43.2657 461.718 43.2657C462.862 39.7002 464.147 36.2201 465.56 32.7535C465.76 32.2598 465.96 31.7661 466.166 31.2575C466.809 29.671 467.454 28.0856 468.1 26.5002C468.542 25.4104 468.985 24.3206 469.427 23.2308C472.581 15.4682 475.768 7.72011 479.025 0Z" fill="#9D8685"/>
<path d="M327.306 0C328.258 0 329.21 0 330.191 0C334.548 10.3969 338.884 20.8026 343.133 31.2443C343.518 32.1919 343.905 33.1391 344.292 34.0861C344.833 35.41 345.371 36.7349 345.908 38.0603C346.07 38.4553 346.232 38.8504 346.399 39.2574C347.497 41.9797 347.497 41.9797 347.497 43.2657C346.355 43.2657 345.212 43.2657 344.036 43.2657C343.601 42.3291 343.169 41.3914 342.738 40.4534C342.497 39.9314 342.256 39.4093 342.008 38.8715C340.89 36.3248 339.877 33.7335 338.844 31.1513C331.99 30.9609 325.137 30.7705 318.076 30.5744C317.791 32.0022 317.791 32.0022 317.499 33.4588C317.209 34.2762 316.896 35.0858 316.56 35.8857C316.379 36.3189 316.199 36.752 316.013 37.1983C315.825 37.6419 315.638 38.0855 315.444 38.5425C315.254 38.9972 315.064 39.4519 314.869 39.9205C314.402 41.0365 313.932 42.1512 313.461 43.2657C312.319 43.2657 311.177 43.2657 310 43.2657C311.61 38.0988 313.688 33.1288 315.733 28.1227C316.117 27.1773 316.502 26.2318 316.887 25.2863C320.324 16.8428 323.804 8.41665 327.306 0Z" fill="#9D8684"/>
<path d="M420.183 3.46124C422.682 3.42555 425.18 3.38985 427.755 3.35308C428.536 3.33732 429.318 3.32157 430.123 3.30533C431.059 3.29885 431.059 3.29885 432.014 3.29223C432.648 3.28317 433.282 3.27411 433.936 3.26477C436.786 3.572 438.643 4.55253 440.554 6.67011C442.34 9.24979 442.48 11.3303 442.104 14.4219C440.741 17.0973 438.829 19.5491 435.88 20.5364C434.307 20.8214 432.823 20.832 431.225 20.8238C430.645 20.8224 430.065 20.821 429.468 20.8195C428.736 20.8142 428.004 20.809 427.25 20.8036C424.918 20.7917 422.586 20.7798 420.183 20.7675C420.183 15.0564 420.183 9.34537 420.183 3.46124Z" fill="white"/>
<path d="M364.226 0C365.368 0 366.511 0 367.687 0C367.688 0.377455 367.689 0.754911 367.69 1.1438C367.701 5.09357 367.733 9.04282 367.775 12.9924C367.789 14.4638 367.797 15.9353 367.8 17.4068C367.806 19.5294 367.829 21.6512 367.856 23.7736C367.854 24.4252 367.852 25.0768 367.85 25.7482C367.927 30.0268 368.687 33.3584 371.149 36.92C374.298 39.8973 377.804 40.0034 381.934 39.9666C385.332 39.6775 387.472 38.5062 389.825 36.0908C391.432 33.5573 392.059 31.4861 392.1 28.4882C392.112 27.8531 392.123 27.2181 392.135 26.5639C392.142 25.8848 392.148 25.2056 392.155 24.5059C392.166 23.8058 392.177 23.1056 392.189 22.3842C392.223 20.1508 392.25 17.9173 392.277 15.6838C392.299 14.1684 392.321 12.6529 392.344 11.1375C392.4 7.42508 392.449 3.71259 392.493 0C393.635 0 394.778 0 395.954 0C395.998 4.34132 396.029 8.68257 396.049 13.0241C396.058 14.4995 396.07 15.9749 396.085 17.4503C396.106 19.5769 396.116 21.7033 396.123 23.8299C396.132 24.4845 396.141 25.1391 396.15 25.8135C396.152 31.1802 395.448 35.5062 391.689 39.516C387.5 43.4295 383.284 44.1092 377.735 44.0273C375.092 43.7796 373.3 43.0463 371.149 41.535C370.381 41.0353 370.381 41.0353 369.598 40.5255C366.009 37.0334 364.183 32.8997 364.095 27.8987C364.095 26.5988 364.102 25.2988 364.114 23.9989C364.115 23.3124 364.117 22.6258 364.118 21.9185C364.125 19.732 364.139 17.5457 364.154 15.3593C364.16 13.8743 364.165 12.3893 364.17 10.9043C364.183 7.26948 364.202 3.63475 364.226 0Z" fill="#9E8886"/>
<path d="M480.178 5.76874C482.032 6.69557 482.353 8.63662 483.065 10.4851C483.228 10.9014 483.392 11.3177 483.56 11.7465C483.906 12.6289 484.249 13.512 484.591 14.3958C485.114 15.7458 485.642 17.0935 486.171 18.4408C486.506 19.2981 486.841 20.1556 487.175 21.0131C487.332 21.4158 487.49 21.8185 487.652 22.2334C488.353 24.0493 488.935 25.797 489.408 27.69C483.507 27.69 477.605 27.69 471.525 27.69C472.565 24.5684 473.596 21.5302 474.792 18.478C474.998 17.9533 474.998 17.9533 475.208 17.418C475.493 16.6908 475.779 15.9638 476.066 15.237C476.506 14.1204 476.943 13.0025 477.379 11.8845C477.794 10.8293 477.794 10.8293 478.218 9.75278C478.595 8.79183 478.595 8.79183 478.981 7.81146C479.601 6.34561 479.601 6.34561 480.178 5.76874Z" fill="white"/>
<path d="M328.46 5.76874C330.209 6.64337 330.355 7.95319 331.053 9.75278C331.328 10.4563 331.603 11.1597 331.886 11.8845C332.099 12.4392 332.099 12.4392 332.317 13.005C332.743 14.1144 333.175 15.2215 333.608 16.3283C335.071 20.0956 336.41 23.8502 337.69 27.69C331.788 27.69 325.887 27.69 319.807 27.69C320.847 24.5684 321.878 21.5302 323.074 18.478C323.28 17.9533 323.28 17.9533 323.489 17.418C323.775 16.6908 324.061 15.9638 324.347 15.237C324.787 14.1204 325.224 13.0025 325.661 11.8845C326.076 10.8293 326.076 10.8293 326.499 9.75278C326.877 8.79183 326.877 8.79183 327.262 7.81146C327.883 6.34561 327.883 6.34561 328.46 5.76874Z" fill="white"/>
</svg>
