<svg
                  width="18"
                  height="18"
                  viewBox="0 0 20 20"
                  fill="none"
                  xmlns="http://www.w3.org/2000/svg"
                >
                  <path
                    d="M13.3945 13.2944L13.85 12.8149L12.7624 11.782L12.3069 12.2615L13.3945 13.2944ZM15.3487 12.6131L17.2592 13.7128L18.0075 12.4128L16.097 11.3131L15.3487 12.6131ZM17.6279 15.9927L16.2073 17.4883L17.2949 18.5213L18.7155 17.0257L17.6279 15.9927ZM15.3526 17.9675C13.9176 18.1092 10.1733 17.9883 6.10918 13.7095L5.02161 14.7424C9.45093 19.4057 13.6761 19.6403 15.4999 19.4603L15.3526 17.9675ZM6.10918 13.7095C2.23306 9.62855 1.58289 6.18631 1.50185 4.67649L0.00400507 4.75688C0.103255 6.60611 0.888435 10.391 5.02161 14.7424L6.10918 13.7095ZM7.48453 7.07235L7.77134 6.77035L6.68375 5.73735L6.39694 6.03931L7.48453 7.07235ZM7.99668 3.01087L6.73568 1.22738L5.51089 2.09335L6.77188 3.87683L7.99668 3.01087ZM2.46769 0.842881L0.898095 2.49537L1.98568 3.5284L3.55528 1.87591L2.46769 0.842881ZM6.94073 6.55582C6.39694 6.03931 6.39626 6.04004 6.39556 6.04077C6.39532 6.04103 6.39462 6.04177 6.39415 6.04227C6.3932 6.04329 6.39222 6.04432 6.39124 6.04538C6.38927 6.0475 6.38723 6.04971 6.38513 6.05202C6.38094 6.05663 6.37649 6.06162 6.37181 6.067C6.36246 6.07776 6.35218 6.09006 6.34119 6.10395C6.31921 6.13173 6.29434 6.16587 6.26825 6.20663C6.21594 6.28839 6.15921 6.39606 6.11116 6.53108C6.01346 6.80565 5.96021 7.16925 6.02674 7.62335C6.15745 8.51545 6.74202 9.71515 8.26937 11.3232L9.35694 10.2902C7.9293 8.78705 7.57765 7.86135 7.5109 7.40585C7.4787 7.18615 7.51141 7.07035 7.52435 7.03395C7.53162 7.01355 7.53638 7.00785 7.53172 7.01515C7.52947 7.01865 7.52497 7.02525 7.51741 7.03485C7.51362 7.03955 7.50907 7.04515 7.50363 7.05135C7.50091 7.05455 7.49796 7.05785 7.49479 7.06135C7.4932 7.06305 7.49155 7.06485 7.48984 7.06665C7.48899 7.06765 7.48812 7.06855 7.48723 7.06945C7.48679 7.06995 7.48611 7.07065 7.48589 7.07095C7.48521 7.07165 7.48453 7.07235 6.94073 6.55582ZM8.26937 11.3232C9.79224 12.9265 10.9423 13.5568 11.8198 13.6993C12.2701 13.7724 12.6346 13.714 12.9106 13.6052C13.0455 13.552 13.1522 13.4895 13.2323 13.4327C13.2723 13.4043 13.3056 13.3774 13.3324 13.3539C13.3459 13.3421 13.3577 13.331 13.368 13.321C13.3732 13.3161 13.378 13.3114 13.3824 13.307C13.3846 13.3048 13.3867 13.3026 13.3887 13.3005C13.3897 13.2995 13.3907 13.2985 13.3917 13.2975C13.3922 13.297 13.3929 13.2962 13.3931 13.296C13.3938 13.2952 13.3945 13.2945 12.8507 12.778C12.3069 12.2615 12.3076 12.2608 12.3083 12.2601C12.3085 12.2598 12.3092 12.2591 12.3096 12.2586C12.3105 12.2577 12.3114 12.2568 12.3123 12.2559C12.3141 12.2541 12.3158 12.2523 12.3174 12.2506C12.3208 12.2473 12.324 12.2441 12.327 12.2412C12.333 12.2354 12.3385 12.2304 12.3433 12.2262C12.3528 12.2178 12.3599 12.2124 12.3645 12.2092C12.3739 12.2025 12.3729 12.2048 12.3602 12.2098C12.3409 12.2174 12.25 12.2495 12.0603 12.2187C11.6577 12.1533 10.7891 11.798 9.35694 10.2902L8.26937 11.3232ZM6.73568 1.22738C5.72209 -0.206199 3.69387 -0.448059 2.46769 0.842881L3.55528 1.87591C4.07812 1.32546 4.99854 1.3687 5.51089 2.09335L6.73568 1.22738ZM1.50185 4.67649C1.48042 4.27719 1.65429 3.87729 1.98568 3.5284L0.898095 2.49537C0.362245 3.05952 -0.0450349 3.84321 0.00400507 4.75688L1.50185 4.67649ZM16.2073 17.4883C15.9283 17.7821 15.6364 17.9395 15.3526 17.9675L15.4999 19.4603C16.247 19.3865 16.8516 18.9881 17.2949 18.5213L16.2073 17.4883ZM7.77134 6.77035C8.73892 5.7517 8.80744 4.15753 7.99668 3.01087L6.77188 3.87683C7.19402 4.4739 7.12929 5.26828 6.68375 5.73735L7.77134 6.77035ZM17.2592 13.7128C18.08 14.1853 18.2407 15.3476 17.6279 15.9927L18.7155 17.0257C20.0204 15.6518 19.6404 13.3527 18.0075 12.4128L17.2592 13.7128ZM13.85 12.8149C14.2354 12.4091 14.836 12.318 15.3487 12.6131L16.097 11.3131C14.9985 10.6808 13.6361 10.8621 12.7624 11.782L13.85 12.8149Z"
                    fill="currentColor"
                  />
                </svg>